<svg id="Слой_1" data-name="Слой 1" xmlns="http://www.w3.org/2000/svg" viewBox="0 0 88.61 90"><defs><style>.cls-1{fill:#fff;}</style></defs><title>support</title><path class="cls-1" d="M91.57,67.33a2.77,2.77,0,0,0,1.05-.21,2.74,2.74,0,0,0,1.68-2.53v-41A5.27,5.27,0,0,0,89,18.3H46.45a5.27,5.27,0,0,0-5.27,5.27V54.08a5.28,5.28,0,0,0,5.27,5.28h36l7.17,7.17A2.73,2.73,0,0,0,91.57,67.33Zm-9-10.93H46.45a2.32,2.32,0,0,1-2.32-2.32V23.57a2.32,2.32,0,0,1,2.32-2.32H89a2.32,2.32,0,0,1,2.32,2.32V64.06L84.49,57.2A2.74,2.74,0,0,0,82.56,56.4Z" transform="translate(-5.7 -5)"/><path class="cls-1" d="M11.64,8H54.22a2.32,2.32,0,0,1,2.31,2.32v3.6h3v-3.6A5.28,5.28,0,0,0,54.22,5H11.64a5.27,5.27,0,0,0-5.27,5.27v41a2.72,2.72,0,0,0,1.68,2.52A2.78,2.78,0,0,0,9.11,54,2.72,2.72,0,0,0,11,53.31l8.15-6.2.08-.06H36.75v-3H19.09a2.71,2.71,0,0,0-1.84.73l-7.93,6V10.27A2.32,2.32,0,0,1,11.64,8Z" transform="translate(-5.7 -5)"/><path class="cls-1" d="M13.73,68.63a9,9,0,1,0,9-9A9,9,0,0,0,13.73,68.63Zm15.1,0a6.08,6.08,0,1,1-6.07-6.08A6.07,6.07,0,0,1,28.83,68.63Z" transform="translate(-5.7 -5)"/><path class="cls-1" d="M12,84a2.12,2.12,0,0,1,2-1.42H31.84a2.12,2.12,0,0,1,2,1.44l3.1,9h2.8a1.44,1.44,0,0,0,0-.94l-3.1-9.06a5.09,5.09,0,0,0-4.81-3.43H14A5.08,5.08,0,0,0,9.19,83L5.77,92.76a1.09,1.09,0,0,0-.07.3H8.8Z" transform="translate(-5.7 -5)"/><path class="cls-1" d="M67.9,74.11a9,9,0,1,0,9-9A9,9,0,0,0,67.9,74.11Zm15.1,0A6.07,6.07,0,1,1,76.93,68,6.07,6.07,0,0,1,83,74.11Z" transform="translate(-5.7 -5)"/><path class="cls-1" d="M66.15,89.49a2.13,2.13,0,0,1,2-1.42H86a2.11,2.11,0,0,1,2,1.43L89.91,95H93l-2.21-6.46A5.08,5.08,0,0,0,86,85.11H68.16a5.09,5.09,0,0,0-4.8,3.4L61.08,95h3.13Z" transform="translate(-5.7 -5)"/><circle class="cls-1" cx="50.14" cy="34.26" r="2.57"/><circle class="cls-1" cx="62.04" cy="34.26" r="2.57"/><circle class="cls-1" cx="73.95" cy="34.26" r="2.57"/></svg>